<svg width="167" height="27" viewBox="0 0 167 27" fill="none" xmlns="http://www.w3.org/2000/svg">
<path d="M3.67374 8.31111C4.18735 9.10293 4.82223 9.75921 5.57124 10.2871C6.32026 10.815 7.36175 11.4784 8.68857 12.2631C10.101 13.1048 11.1996 13.8039 11.97 14.3603C12.7475 14.9167 13.4109 15.6301 13.9673 16.5003C14.5238 17.3706 14.802 18.4192 14.802 19.6391C14.802 20.916 14.4881 22.0787 13.8675 23.1273C13.2397 24.176 12.3124 25.0034 11.0712 25.6169C9.83706 26.2304 8.31763 26.5371 6.52713 26.5371C5.57838 26.5371 4.67243 26.4373 3.81641 26.2304C2.96039 26.0235 2.01877 25.6669 0.98442 25.1461C0.848884 25.0676 0.756148 24.9678 0.720481 24.8608C0.67768 24.7538 0.649146 24.5897 0.620612 24.3686L0 19.0827V19.0399C0 18.9329 0.0713348 18.8687 0.206871 18.8544C0.342407 18.8401 0.420875 18.8901 0.449409 18.9971C0.720481 20.8732 1.44096 22.5067 2.61085 23.8906C3.78074 25.2745 5.38577 25.9736 7.42595 25.9736C8.86691 25.9736 10.0867 25.5813 11.0783 24.7894C12.0698 23.9976 12.5692 22.7635 12.5692 21.08C12.5692 19.8602 12.2981 18.8045 11.756 17.9199C11.2138 17.0354 10.5504 16.3006 9.78 15.7157C9.00245 15.1307 7.95383 14.4459 6.61987 13.6541C5.31444 12.8908 4.28722 12.2274 3.5382 11.6567C2.78919 11.086 2.15431 10.3727 1.6193 9.51667C1.09142 8.66065 0.82035 7.63343 0.82035 6.43501C0.82035 5.07965 1.16989 3.92402 1.86184 2.96814C2.55378 2.01938 3.45974 1.2989 4.57256 0.828094C5.68538 0.350151 6.8838 0.114746 8.1607 0.114746C9.65873 0.114746 11.2067 0.442886 12.8117 1.09203C13.2183 1.2561 13.4252 1.48437 13.4252 1.78398L13.789 6.10687C13.789 6.21387 13.7105 6.27094 13.5607 6.27094C13.4109 6.27094 13.3253 6.21387 13.2968 6.10687C13.1898 4.69444 12.6548 3.43181 11.706 2.31186C10.7573 1.19903 9.39479 0.63549 7.62569 0.63549C5.99212 0.63549 4.7937 1.11343 4.03755 2.06219C3.27427 3.01094 2.89619 4.15229 2.89619 5.48625C2.89619 6.58481 3.153 7.52643 3.67374 8.31111Z" fill="#9C7F34"/>
<path d="M60.7487 25.8306C60.7487 25.9946 60.7059 26.0731 60.6274 26.0731C59.7857 26.0731 59.1151 26.0588 58.6301 26.0303L55.8979 25.9875L53.3727 26.0303C52.9661 26.0588 52.3954 26.0731 51.6606 26.0731C51.6036 26.0731 51.5822 25.9946 51.5822 25.8306C51.5822 25.6665 51.6107 25.588 51.6606 25.588C52.6094 25.588 53.3156 25.5167 53.7579 25.3669C54.2073 25.2171 54.5069 24.9532 54.6567 24.568C54.8065 24.1899 54.8564 23.5907 54.7994 22.7703L54.1003 3.80954L44.5557 25.7878C44.4986 25.8948 44.3916 25.9518 44.2276 25.9518C44.092 25.9518 43.9708 25.8948 43.8638 25.7878L33.9126 3.97361L33.8698 3.89514L33.5416 21.8358C33.5131 23.2483 33.7414 24.2327 34.2336 24.7748C34.7258 25.317 35.6317 25.588 36.9657 25.588C37.0227 25.588 37.0442 25.6665 37.0442 25.8306C37.0442 25.9946 37.0156 26.0731 36.9657 26.0731C36.2024 26.0731 35.6175 26.0588 35.2108 26.0303L33.0066 25.9875L31.0092 26.0303C30.6597 26.0588 30.1247 26.0731 29.4185 26.0731C29.3614 26.0731 29.34 25.9946 29.34 25.8306C29.34 25.6665 29.3685 25.588 29.4185 25.588C30.5598 25.588 31.3659 25.3098 31.8438 24.7534C32.3218 24.197 32.5715 23.2269 32.6 21.8358L33.0066 2.50411C32.1649 1.55536 31.0663 1.07741 29.7038 1.07741C29.6467 1.07741 29.6253 0.991813 29.6253 0.834877C29.6253 0.670807 29.6539 0.585205 29.7038 0.585205L31.0877 0.628006C31.3588 0.65654 31.7154 0.670807 32.1506 0.670807C32.5857 0.670807 32.9495 0.65654 33.2491 0.628006C33.5487 0.599472 33.777 0.585205 33.9411 0.585205C34.3192 0.585205 34.6188 0.713608 34.8399 0.970413C35.0539 1.22722 35.382 1.80503 35.8172 2.70385L44.9908 22.5278L54.1431 1.60529C54.2786 1.30569 54.4641 1.06315 54.6924 0.870544C54.9206 0.67794 55.1489 0.585205 55.3629 0.585205C55.4699 0.585205 55.6483 0.599472 55.8908 0.628006C56.1333 0.65654 56.4757 0.670807 56.9109 0.670807L58.7442 0.628006C59.0153 0.599472 59.4361 0.585205 60.0068 0.585205C60.0639 0.585205 60.0853 0.663673 60.0853 0.834877C60.0853 0.998947 60.0567 1.07741 60.0068 1.07741C58.5944 1.07741 57.5957 1.26289 57.0107 1.62669C56.4258 1.9905 56.1476 2.72525 56.1761 3.80954L56.9537 22.7703C56.9822 23.6121 57.0821 24.2255 57.2604 24.6036C57.4388 24.9817 57.774 25.2456 58.2805 25.3812C58.787 25.5167 59.5645 25.588 60.6274 25.588C60.7059 25.588 60.7487 25.6665 60.7487 25.8306Z" fill="#9C7F34"/>
<path d="M73.7031 22.6061C73.7031 23.3979 73.7887 23.9757 73.967 24.3395C74.1453 24.7033 74.4735 24.9601 74.9443 25.0956C75.4222 25.2312 76.1784 25.3025 77.2056 25.3025H82.4273C85.1166 25.3025 86.7074 23.5762 87.1996 20.1236C87.1996 20.038 87.2709 20.0095 87.4207 20.0237C87.5705 20.038 87.649 20.0879 87.649 20.1664C87.4065 22.3136 87.2781 24.0827 87.2781 25.4666C87.2781 25.6806 87.2353 25.8375 87.1568 25.9374C87.0783 26.0373 86.9143 26.0801 86.6646 26.0801H67.9107C67.8536 26.0801 67.8322 26.0016 67.8322 25.8375C67.8322 25.6735 67.8607 25.595 67.9107 25.595C68.9736 25.595 69.7511 25.5308 70.2576 25.3881C70.7569 25.2526 71.0993 24.9886 71.2777 24.5963C71.456 24.204 71.5416 23.5976 71.5416 22.7844V3.88781C71.5416 3.0746 71.456 2.47539 71.2777 2.09018C71.0993 1.7121 70.7569 1.44816 70.2576 1.29123C69.7511 1.14143 68.9736 1.07009 67.9107 1.07009C67.8536 1.07009 67.8322 0.984489 67.8322 0.827552C67.8322 0.663483 67.8607 0.577881 67.9107 0.577881L69.9081 0.627815C71.0494 0.67775 71.9482 0.706283 72.6045 0.706283C73.3393 0.706283 74.2737 0.67775 75.4222 0.627815L77.3411 0.585014C77.3982 0.585014 77.4267 0.663483 77.4267 0.834686C77.4267 0.998756 77.3982 1.07722 77.3411 1.07722C76.2854 1.07722 75.5007 1.14856 74.9942 1.29836C74.4949 1.44816 74.1525 1.71924 73.9741 2.11871C73.7958 2.51105 73.7102 3.1174 73.7102 3.93061V22.6061H73.7031Z" fill="#9C7F34"/>
<path d="M96.4303 3.09593C95.6385 3.90915 95.1106 5.36437 94.8396 7.46162C94.8396 7.51868 94.7611 7.54008 94.597 7.54008C94.433 7.54008 94.3545 7.51155 94.3545 7.46162C94.4615 6.72687 94.5828 5.54984 94.7254 3.93055C94.861 2.31125 94.9252 1.09856 94.9252 0.278206C94.9252 0.14267 95.0108 0.0713348 95.1748 0.0713348C95.3389 0.0713348 95.4174 0.14267 95.4174 0.278206C95.4174 0.877418 96.1379 1.17702 97.5788 1.17702C99.9186 1.25549 102.651 1.29829 105.775 1.29829C107.38 1.29829 109.078 1.26976 110.876 1.21982L113.651 1.17702C114.628 1.17702 115.348 1.11282 115.812 0.977286C116.276 0.84175 116.575 0.570678 116.711 0.16407C116.739 0.0570678 116.818 0 116.953 0C117.089 0 117.16 0.0570678 117.16 0.16407C117.082 0.927352 116.996 2.09011 116.918 3.65234C116.832 5.21457 116.796 6.48433 116.796 7.46875C116.796 7.52582 116.718 7.54722 116.554 7.54722C116.39 7.54722 116.311 7.51868 116.311 7.46875C116.311 6.02779 116.162 4.91497 115.862 4.12315C115.562 3.33133 115.063 2.76066 114.35 2.41112C113.643 2.06157 112.652 1.88324 111.375 1.88324C109.963 1.88324 108.971 1.93317 108.4 2.02591C107.83 2.11864 107.444 2.34691 107.238 2.69645C107.031 3.04599 106.931 3.67374 106.931 4.57256V23.3693C106.931 24.211 107.024 24.8245 107.216 25.2026C107.409 25.5806 107.787 25.8446 108.358 25.9801C108.928 26.1157 109.827 26.187 111.047 26.187C111.104 26.187 111.125 26.2726 111.125 26.4295C111.125 26.5936 111.097 26.6721 111.047 26.6721C110.148 26.6721 109.442 26.6578 108.928 26.6293L105.789 26.5936L102.815 26.6293C102.273 26.6578 101.524 26.6721 100.575 26.6721C100.518 26.6721 100.489 26.5936 100.489 26.4295C100.489 26.2655 100.518 26.187 100.575 26.187C101.795 26.187 102.694 26.1228 103.264 25.9801C103.835 25.8446 104.22 25.5806 104.427 25.1883C104.634 24.796 104.734 24.1896 104.734 23.3693V4.47982C104.734 3.58101 104.627 2.96039 104.406 2.62512C104.184 2.28271 103.799 2.07584 103.243 1.99024C102.686 1.91177 101.673 1.86897 100.204 1.86897C98.4705 1.86897 97.2221 2.27558 96.4303 3.09593Z" fill="#9C7F34"/>
<path d="M28.7265 0.585205H14.7877C14.9232 0.806343 15.0159 1.04175 15.073 1.29142C15.1515 1.31995 15.2442 1.34849 15.3084 1.38415C15.6865 1.59103 15.8791 2.00477 15.8791 2.62538C15.8791 2.98205 15.8363 3.40293 15.7578 3.89514L15.4796 5.4859L15.5296 6.04231V6.11365C15.5296 6.52739 15.4012 6.89833 15.18 7.20507L14.003 13.8463C14.5309 14.3599 15.0231 14.9164 15.444 15.5726C15.501 15.6582 15.5367 15.751 15.5866 15.8366L16.0574 13.1901H21.9283C22.8271 13.1901 23.462 13.3399 23.8472 13.6395C24.2253 13.9391 24.4179 14.4384 24.4179 15.1446C24.4179 15.3372 24.3608 15.7866 24.2538 16.4929C24.2253 16.5999 24.2966 16.6641 24.4607 16.6783C24.6247 16.6926 24.7175 16.6427 24.746 16.5357L25.0741 14.417L25.3167 12.8263L25.5592 11.3996C25.6377 11.0714 25.7518 10.5007 25.8874 9.68752C25.9159 9.63045 25.8945 9.58765 25.8232 9.54485C25.7518 9.50205 25.6948 9.48065 25.6377 9.48065C25.4736 9.48065 25.3952 9.52345 25.3952 9.60192C25.2311 10.6648 24.9172 11.3996 24.4607 11.8062C23.997 12.2128 23.248 12.4196 22.2208 12.4196H16.1858L17.691 3.93794C17.8265 3.12472 18.0049 2.52551 18.2189 2.14744C18.4329 1.76936 18.7539 1.50542 19.1748 1.36989C19.5956 1.23435 20.2519 1.16302 21.1507 1.16302H25.1883C26.03 1.16302 26.6863 1.46262 27.1429 2.06183C27.6065 2.66105 27.8348 3.47426 27.8348 4.50862C27.8348 4.94376 27.792 5.40744 27.7135 5.89965C27.685 5.97811 27.7563 6.03518 27.9204 6.06372C28.0845 6.09225 28.1772 6.04945 28.2057 5.94245C28.2842 5.53584 28.3555 5.10783 28.4126 4.65842C28.4626 4.20901 28.5339 3.781 28.6195 3.37439L28.9904 0.970413C29.0261 0.706474 28.9405 0.585205 28.7265 0.585205Z" fill="#9C7F34"/>
<path d="M13.5464 26.0729H25.2953C25.4879 26.0729 25.6234 26.0301 25.7233 25.9302C25.8232 25.8304 25.8945 25.6806 25.9516 25.4594C26.3011 23.3907 26.7148 21.6288 27.1785 20.1593C27.2071 20.0737 27.1429 20.0237 26.9931 19.9952C26.8432 19.9667 26.7576 19.9952 26.7291 20.0737C26.2654 21.6216 25.6306 22.8914 24.8102 23.8687C23.997 24.846 23.141 25.3382 22.2422 25.3382H16.8992C15.8648 25.3382 15.1657 25.2383 14.8019 25.0314C14.7663 25.01 14.752 24.9601 14.7163 24.9387C14.3739 25.3596 13.9745 25.7305 13.5464 26.0729Z" fill="#9C7F34"/>
<path d="M13.0614 0.827553C13.0614 0.991622 13.1042 1.07009 13.1827 1.07009C14.0387 1.07009 14.6593 1.14856 15.073 1.2841C15.016 1.03442 14.9232 0.799019 14.7877 0.577881H13.1827C13.1042 0.585014 13.0614 0.670616 13.0614 0.827553Z" fill="#9C7F34"/>
<path d="M15.5224 6.11334V6.04201L15.4725 5.4856L15.1658 7.2119C15.3869 6.89802 15.5224 6.51995 15.5224 6.11334Z" fill="#9C7F34"/>
<path d="M166.995 26.0942C167.016 26.2583 166.973 26.3368 166.859 26.3368C166.453 26.3368 165.839 26.3082 165.012 26.2583C164.077 26.2012 163.342 26.1727 162.8 26.1727C162.287 26.1727 161.595 26.2012 160.731 26.2583C159.925 26.3154 159.326 26.3368 158.948 26.3368C158.87 26.3368 158.82 26.2583 158.798 26.0942C158.777 25.9302 158.805 25.8517 158.891 25.8517C159.975 25.8517 160.703 25.7233 161.067 25.4593C161.431 25.2025 161.566 24.7175 161.48 24.0041C161.459 23.8115 161.388 23.4477 161.266 22.8984L158.442 12.4479H152.164L148.583 20.8868C147.884 22.499 147.577 23.6902 147.67 24.4535C147.734 25.0028 147.991 25.3666 148.44 25.5592C148.883 25.7518 149.525 25.8446 150.374 25.8446C150.481 25.8446 150.538 25.923 150.545 26.0871C150.552 26.2512 150.502 26.3296 150.388 26.3296C150.088 26.3296 149.503 26.3011 148.626 26.2512C147.642 26.1941 146.878 26.1656 146.336 26.1656C145.765 26.1656 145.102 26.1941 144.346 26.2512C143.59 26.3082 143.012 26.3296 142.605 26.3296C142.498 26.3296 142.434 26.2512 142.413 26.0871C142.391 25.923 142.434 25.8446 142.548 25.8446C144.339 25.8446 145.901 24.3679 147.228 21.4218L156.401 0.320976C156.444 0.242508 156.537 0.199707 156.673 0.199707C156.915 0.199707 157.072 0.271042 157.143 0.406578L163.271 22.8984C163.478 23.7188 163.699 24.3251 163.92 24.7246C164.148 25.1241 164.469 25.4094 164.905 25.5877C165.34 25.7661 165.967 25.8517 166.809 25.8517C166.909 25.8517 166.973 25.9302 166.995 26.0942ZM158.22 11.6703L155.995 3.43831L152.471 11.6703H158.22Z" fill="#9C7F34"/>
<path d="M88.9259 26.0729H94.0905C94.2831 26.0729 94.4258 26.0301 94.5185 25.9302C94.6113 25.8304 94.6897 25.6806 94.7397 25.4594C95.0964 23.3907 95.503 21.6288 95.9666 20.1593C95.9952 20.0737 95.931 20.0237 95.7812 19.9952C95.6314 19.9667 95.5458 19.9952 95.5172 20.0737C95.0536 21.6216 94.4187 22.8914 93.5983 23.8687C92.7851 24.846 91.9291 25.3382 91.0303 25.3382H89.0186C89.0186 25.3738 89.0186 25.4238 89.0186 25.4594C89.0186 25.6877 88.9687 25.8803 88.9259 26.0729Z" fill="#9C7F34"/>
<path d="M154.604 0.520752L152.892 0.563553C152.186 0.620621 151.544 0.642021 150.973 0.642021C150.267 0.642021 149.446 0.613487 148.526 0.563553L146.9 0.520752C146.814 0.520752 146.778 0.59922 146.778 0.770424C146.778 0.934494 146.821 1.01296 146.9 1.01296C148.041 1.01296 148.861 1.11996 149.368 1.3411C149.874 1.55511 150.124 1.91178 150.124 2.39686C150.124 2.725 150.031 3.11734 149.839 3.58101L141.97 23.1196L138.996 16.5568C138.739 17.5912 138.368 18.5827 137.89 19.5386L140.829 25.9801C140.908 26.0871 141.057 26.1442 141.278 26.1442C141.55 26.1442 141.699 26.0871 141.728 25.9801L150.702 3.83782C151.165 2.7464 151.701 2.00452 152.314 1.61217C152.927 1.21983 153.691 1.0201 154.618 1.0201C154.697 1.0201 154.739 0.941627 154.739 0.777557C154.725 0.606354 154.689 0.520752 154.604 0.520752Z" fill="#9C7F34"/>
<path d="M136.128 6.71986C135.08 4.73675 133.581 3.13885 131.62 1.92616C129.665 0.71347 127.39 0.114258 124.807 0.114258C122.76 0.114258 120.755 0.535133 118.787 1.31982C118.772 1.47675 118.765 1.63369 118.751 1.80489C120.014 1.27701 121.462 1.00594 123.095 1.00594C125.485 1.00594 127.589 1.56235 129.394 2.67518C131.206 3.788 132.604 5.3431 133.596 7.3476C134.587 9.34498 135.087 11.6206 135.087 14.1815C135.087 16.5997 134.637 18.6827 133.738 20.4233C132.84 22.1638 131.62 23.4835 130.065 24.3823C128.517 25.2812 126.776 25.7306 124.843 25.7306C122.56 25.7306 120.52 25.1171 118.722 23.8973C116.925 22.6703 115.534 21.0082 114.542 18.9038C113.551 16.7995 113.051 14.4811 113.051 11.9487C113.051 9.50905 113.522 7.44747 114.442 5.7497C114.378 5.27176 114.293 4.94362 114.207 4.72962C114.157 4.60121 114.093 4.50848 114.029 4.40861C113.508 4.93649 113.009 5.50003 112.559 6.12778C111.147 8.12515 110.44 10.5291 110.44 13.3255C110.44 15.7152 110.975 17.9265 112.053 19.9525C113.123 21.9784 114.649 23.5834 116.618 24.7676C118.587 25.9517 120.841 26.5438 123.366 26.5438C125.92 26.5438 128.296 25.9446 130.478 24.7462C132.668 23.5477 134.416 21.9213 135.722 19.8526C137.027 17.791 137.676 15.5154 137.676 13.0401C137.697 10.8145 137.177 8.7101 136.128 6.71986Z" fill="#9C7F34"/>
<path d="M81.9708 0.585205C81.8923 0.585205 81.8495 0.670807 81.8495 0.834877C81.8495 0.998947 81.8923 1.07741 81.9708 1.07741C83.0051 1.07741 83.7113 1.17728 84.0894 1.38415C84.4675 1.59103 84.6601 2.00477 84.6601 2.62538C84.6601 2.98205 84.6173 3.40293 84.5388 3.89514L81.1932 22.7775C81.1362 23.0771 81.072 23.3339 81.0078 23.5693H82.4202C82.5914 23.5693 82.8054 23.5693 83.0408 23.5336C83.0551 23.2625 83.0836 22.9701 83.1478 22.6134L84.817 13.1901H90.6879C91.5867 13.1901 92.2216 13.3399 92.6068 13.6395C92.9849 13.9391 93.1775 14.4384 93.1775 15.1446C93.1775 15.3372 93.1204 15.7866 93.0134 16.4929C92.9849 16.5999 93.0562 16.6641 93.2203 16.6783C93.3843 16.6926 93.4771 16.6427 93.5056 16.5357L93.8337 14.417L94.0763 12.8263L94.3188 11.3996C94.3973 11.0714 94.5114 10.5007 94.647 9.68752C94.6755 9.63045 94.6541 9.58765 94.5828 9.54485C94.5186 9.50205 94.4544 9.48065 94.3973 9.48065C94.2332 9.48065 94.1548 9.52345 94.1548 9.60192C93.9907 10.6648 93.6768 11.3996 93.2203 11.8062C92.7566 12.2128 92.0076 12.4196 90.9732 12.4196H84.9383L86.4435 3.93794C86.579 3.12472 86.7573 2.52551 86.9713 2.14744C87.1853 1.76936 87.5064 1.50542 87.9272 1.36989C88.3481 1.23435 89.0115 1.16302 89.9032 1.16302H93.1418C93.1489 0.956146 93.1561 0.763542 93.1561 0.592339H81.9708V0.585205Z" fill="#9C7F34"/>
<path d="M66.0988 0.827743C66.0988 0.784942 66.1059 0.742142 66.1131 0.699341C66.0346 0.706474 65.949 0.706474 65.8777 0.706474C65.307 0.706474 64.5294 0.67794 63.5521 0.628006L61.8758 0.585205C61.8472 0.585205 61.8258 0.606606 61.8044 0.628006C61.8116 0.692207 61.8258 0.756408 61.8258 0.827743C61.8258 0.899078 61.8116 0.963279 61.8044 1.02748C61.8258 1.04888 61.8401 1.07028 61.8758 1.07028C62.9387 1.07028 63.6663 1.17015 64.0586 1.37702C64.451 1.58389 64.6507 1.99763 64.6507 2.61825C64.6507 2.81085 64.5936 3.23172 64.4866 3.88087L61.141 22.7632C61.0697 23.1912 60.9841 23.555 60.8914 23.8689C61.7046 23.9901 62.4821 24.6607 62.4821 25.8234C62.4821 25.8876 62.4679 25.9447 62.4607 26.0018L64.1157 26.0303C64.5223 26.0588 65.0644 26.0731 65.7493 26.0731C65.8063 26.0731 65.8277 25.9946 65.8277 25.8306C65.8277 25.6665 65.7992 25.588 65.7493 25.588C64.665 25.588 63.9302 25.4882 63.545 25.2813C63.1598 25.0744 62.9743 24.6607 62.9743 24.0401C62.9743 23.7119 63.0171 23.2911 63.0956 22.7775L66.4412 3.97361C66.5696 3.34586 66.7051 2.85365 66.8621 2.47558C66.4198 2.14744 66.0988 1.59816 66.0988 0.827743Z" fill="#9C7F34"/>
</svg>
