<svg width="35" height="32" viewBox="0 0 35 32" fill="none" xmlns="http://www.w3.org/2000/svg">
<path fill-rule="evenodd" clip-rule="evenodd" d="M4 7H27V28H4V7ZM6 9V26H25V9H6Z" fill="#28214B"/>
<path fill-rule="evenodd" clip-rule="evenodd" d="M15.5 4C13.0147 4 11 6.01472 11 8.5H9C9 4.91015 11.9101 2 15.5 2C19.0899 2 22 4.91015 22 8.5H20C20 6.01472 17.9853 4 15.5 4Z" fill="#28214B"/>
<path opacity="0.92" d="M25.5 17C30.1944 17 34 13.1944 34 8.5C34 3.80558 30.1944 0 25.5 0C20.8056 0 17 3.80558 17 8.5C17 13.1944 20.8056 17 25.5 17Z" fill="#9C7F34"/>
<path d="M25.3703 12.145C25.017 12.145 24.6936 12.085 24.4003 11.965C24.107 11.8417 23.8553 11.6667 23.6453 11.44C23.4353 11.21 23.2803 10.9367 23.1803 10.62L23.7253 10.445C23.8586 10.825 24.072 11.1117 24.3653 11.305C24.6586 11.4983 24.992 11.5917 25.3653 11.585C25.712 11.575 26.007 11.4967 26.2503 11.35C26.497 11.2033 26.6853 11 26.8153 10.74C26.9453 10.48 27.0103 10.1733 27.0103 9.81999C27.0103 9.28665 26.8586 8.86165 26.5553 8.54499C26.252 8.22499 25.8486 8.06499 25.3453 8.06499C25.212 8.06499 25.067 8.08499 24.9103 8.12499C24.7536 8.16165 24.6103 8.21165 24.4803 8.27499L24.1703 7.81499L27.0903 5.05499L27.2153 5.36499H23.4703V4.79999H27.5453V5.36999L24.9403 7.85999L24.9303 7.58499C25.447 7.49165 25.907 7.52832 26.3103 7.69499C26.717 7.85832 27.0353 8.12499 27.2653 8.49499C27.4986 8.86499 27.6153 9.30665 27.6153 9.81999C27.6153 10.2867 27.5186 10.695 27.3253 11.045C27.1353 11.3917 26.872 11.6617 26.5353 11.855C26.1986 12.0483 25.8103 12.145 25.3703 12.145Z" fill="white"/>
</svg>
