<svg width="32" height="32" viewBox="0 0 32 32" fill="none" xmlns="http://www.w3.org/2000/svg">
<path fill-rule="evenodd" clip-rule="evenodd" d="M3.75012 14.9082C3.75012 8.83308 8.67499 3.9082 14.7501 3.9082C20.8253 3.9082 25.7501 8.83308 25.7501 14.9082C25.7501 20.9834 20.8253 25.9082 14.7501 25.9082C8.67499 25.9082 3.75012 20.9834 3.75012 14.9082ZM14.7501 5.9082C9.77956 5.9082 5.75012 9.93765 5.75012 14.9082C5.75012 19.8788 9.77955 23.9082 14.7501 23.9082C19.7207 23.9082 23.7501 19.8788 23.7501 14.9082C23.7501 9.93764 19.7207 5.9082 14.7501 5.9082Z" fill="#28214B"/>
<path fill-rule="evenodd" clip-rule="evenodd" d="M22.5197 21.2636L27.9572 26.7011L26.543 28.1153L21.1055 22.6778L22.5197 21.2636Z" fill="#28214B"/>
</svg>
