<svg width="177" height="29" viewBox="0 0 177 29" fill="none" xmlns="http://www.w3.org/2000/svg">
<path d="M3.87409 8.76369C4.41571 9.59869 5.08521 10.2908 5.87508 10.8474C6.66494 11.4041 7.76323 12.1037 9.16241 12.9312C10.6519 13.8188 11.8103 14.556 12.6228 15.1428C13.4427 15.7295 14.1423 16.4818 14.7291 17.3995C15.3158 18.3173 15.6092 19.4231 15.6092 20.7094C15.6092 22.056 15.2782 23.2821 14.6237 24.3879C13.9618 25.4937 12.9838 26.3664 11.6749 27.0133C10.3735 27.6602 8.77124 27.9837 6.88309 27.9837C5.8826 27.9837 4.92724 27.8784 4.02454 27.6602C3.12184 27.4421 2.12887 27.0659 1.03811 26.5168C0.895178 26.4341 0.797386 26.3287 0.759773 26.2159C0.714638 26.1031 0.684548 25.93 0.654458 25.6968L0 20.1227V20.0775C0 19.9647 0.075225 19.897 0.218153 19.882C0.36108 19.8669 0.443828 19.9196 0.473918 20.0324C0.759773 22.0108 1.51955 23.7335 2.75324 25.1928C3.98693 26.6522 5.67949 27.3894 7.83093 27.3894C9.35047 27.3894 10.6368 26.9757 11.6825 26.1407C12.7281 25.3057 13.2547 24.0043 13.2547 22.229C13.2547 20.9426 12.9688 19.8293 12.3971 18.8965C11.8254 17.9637 11.1258 17.1889 10.3134 16.5721C9.4934 15.9552 8.38759 15.233 6.98088 14.398C5.60427 13.5931 4.52103 12.8935 3.73116 12.2917C2.9413 11.6899 2.2718 10.9377 1.70761 10.035C1.15094 9.13229 0.865088 8.04905 0.865088 6.78527C0.865088 5.35599 1.23369 4.13735 1.96337 3.12933C2.69306 2.12884 3.64841 1.36907 4.82193 0.872581C5.99544 0.368573 7.25922 0.120331 8.60575 0.120331C10.1855 0.120331 11.8179 0.466366 13.5104 1.15091C13.9392 1.32393 14.1574 1.56465 14.1574 1.8806L14.541 6.43923C14.541 6.55207 14.4583 6.61225 14.3003 6.61225C14.1423 6.61225 14.052 6.55207 14.0219 6.43923C13.9091 4.94978 13.3449 3.6183 12.3444 2.43726C11.3439 1.26375 9.90714 0.669474 8.04156 0.669474C6.3189 0.669474 5.05512 1.17348 4.25774 2.17397C3.45283 3.17447 3.05414 4.37807 3.05414 5.78478C3.05414 6.94324 3.32495 7.93621 3.87409 8.76369Z" fill="#161616"/>
<path d="M64.0617 27.239C64.0617 27.412 64.0165 27.4948 63.9338 27.4948C63.0461 27.4948 62.339 27.4797 61.8275 27.4496L58.9464 27.4045L56.2834 27.4496C55.8546 27.4797 55.2528 27.4948 54.478 27.4948C54.4178 27.4948 54.3952 27.412 54.3952 27.239C54.3952 27.066 54.4253 26.9832 54.478 26.9832C55.4785 26.9832 56.2232 26.908 56.6896 26.75C57.1635 26.5921 57.4795 26.3137 57.6374 25.9075C57.7954 25.5088 57.8481 24.8769 57.7879 24.0118L57.0507 4.01702L46.9856 27.1939C46.9254 27.3067 46.8125 27.3669 46.6395 27.3669C46.4966 27.3669 46.3687 27.3067 46.2559 27.1939L35.762 4.19004L35.7169 4.10729L35.3708 23.0264C35.3407 24.5159 35.5814 25.554 36.1005 26.1257C36.6196 26.6974 37.5749 26.9832 38.9816 26.9832C39.0418 26.9832 39.0644 27.066 39.0644 27.239C39.0644 27.412 39.0343 27.4948 38.9816 27.4948C38.1767 27.4948 37.5599 27.4797 37.1311 27.4496L34.8066 27.4045L32.7003 27.4496C32.3317 27.4797 31.7675 27.4948 31.0228 27.4948C30.9626 27.4948 30.9401 27.412 30.9401 27.239C30.9401 27.066 30.9702 26.9832 31.0228 26.9832C32.2264 26.9832 33.0765 26.6899 33.5805 26.1031C34.0845 25.5163 34.3478 24.4933 34.3778 23.0264L34.8066 2.64041C33.919 1.63991 32.7605 1.1359 31.3237 1.1359C31.2635 1.1359 31.241 1.04563 31.241 0.880139C31.241 0.707122 31.2711 0.616852 31.3237 0.616852L32.7831 0.661987C33.0689 0.692077 33.4451 0.707122 33.9039 0.707122C34.3628 0.707122 34.7465 0.692077 35.0624 0.661987C35.3783 0.631897 35.6191 0.616852 35.7921 0.616852C36.1908 0.616852 36.5067 0.752257 36.7399 1.02307C36.9656 1.29388 37.3116 1.9032 37.7705 2.85104L47.4444 23.7561L57.0958 1.69257C57.2387 1.37662 57.4343 1.12086 57.675 0.917752C57.9158 0.714644 58.1565 0.616852 58.3822 0.616852C58.495 0.616852 58.6831 0.631897 58.9388 0.661987C59.1946 0.692077 59.5557 0.707122 60.0145 0.707122L61.9478 0.661987C62.2337 0.631897 62.6775 0.616852 63.2793 0.616852C63.3395 0.616852 63.3621 0.699599 63.3621 0.880139C63.3621 1.05316 63.332 1.1359 63.2793 1.1359C61.7899 1.1359 60.7367 1.33149 60.1199 1.71514C59.503 2.09879 59.2096 2.8736 59.2397 4.01702L60.0597 24.0118C60.0898 24.8995 60.1951 25.5464 60.3831 25.9451C60.5712 26.3438 60.9248 26.6222 61.4589 26.7651C61.993 26.908 62.8129 26.9832 63.9338 26.9832C64.0165 26.9832 64.0617 27.066 64.0617 27.239Z" fill="#161616"/>
<path d="M77.7225 23.8388C77.7225 24.6738 77.8128 25.2831 78.0009 25.6668C78.1889 26.0504 78.5349 26.3212 79.0314 26.4642C79.5354 26.6071 80.3328 26.6823 81.4161 26.6823H86.9225C89.7585 26.6823 91.436 24.8619 91.9551 21.221C91.9551 21.1307 92.0303 21.1006 92.1883 21.1157C92.3463 21.1307 92.429 21.1834 92.429 21.2661C92.1733 23.5304 92.0378 25.396 92.0378 26.8553C92.0378 27.081 91.9927 27.2465 91.91 27.3518C91.8272 27.4571 91.6542 27.5023 91.3909 27.5023H71.6142C71.5541 27.5023 71.5315 27.4195 71.5315 27.2465C71.5315 27.0735 71.5616 26.9907 71.6142 26.9907C72.7351 26.9907 73.555 26.923 74.0891 26.7726C74.6157 26.6297 74.9768 26.3513 75.1649 25.9376C75.3529 25.5239 75.4432 24.8844 75.4432 24.0269V4.09976C75.4432 3.24219 75.3529 2.6103 75.1649 2.20409C74.9768 1.80539 74.6157 1.52706 74.0891 1.36156C73.555 1.20359 72.7351 1.12837 71.6142 1.12837C71.5541 1.12837 71.5315 1.0381 71.5315 0.872602C71.5315 0.699584 71.5616 0.609314 71.6142 0.609314L73.7205 0.661971C74.9241 0.714629 75.872 0.744719 76.5641 0.744719C77.3389 0.744719 78.3243 0.714629 79.5354 0.661971L81.559 0.616836C81.6192 0.616836 81.6493 0.699584 81.6493 0.880124C81.6493 1.05314 81.6192 1.13589 81.559 1.13589C80.4457 1.13589 79.6182 1.21111 79.0841 1.36909C78.5575 1.52706 78.1964 1.81291 78.0084 2.23418C77.8203 2.64791 77.73 3.28733 77.73 4.14489V23.8388H77.7225Z" fill="#161616"/>
<path d="M101.689 3.26477C100.854 4.12233 100.298 5.65692 100.012 7.86854C100.012 7.92872 99.929 7.95129 99.7559 7.95129C99.5829 7.95129 99.5002 7.9212 99.5002 7.86854C99.613 7.09372 99.7409 5.85251 99.8913 4.1449C100.034 2.43729 100.102 1.15847 100.102 0.293378C100.102 0.15045 100.192 0.0752251 100.365 0.0752251C100.538 0.0752251 100.621 0.15045 100.621 0.293378C100.621 0.925268 101.381 1.24121 102.9 1.24121C105.368 1.32396 108.249 1.3691 111.544 1.3691C113.236 1.3691 115.027 1.33901 116.922 1.28635L119.849 1.24121C120.879 1.24121 121.639 1.17351 122.128 1.03058C122.617 0.887656 122.933 0.6018 123.076 0.173018C123.106 0.06018 123.189 0 123.331 0C123.474 0 123.55 0.06018 123.55 0.173018C123.467 0.977926 123.377 2.20409 123.294 3.85152C123.204 5.49895 123.166 6.83796 123.166 7.87606C123.166 7.93624 123.083 7.95881 122.91 7.95881C122.737 7.95881 122.654 7.92872 122.654 7.87606C122.654 6.35652 122.496 5.18301 122.181 4.34801C121.865 3.51301 121.338 2.91121 120.586 2.54261C119.841 2.174 118.795 1.98594 117.449 1.98594C115.959 1.98594 114.914 2.0386 114.312 2.13639C113.71 2.23418 113.304 2.4749 113.086 2.84351C112.868 3.21211 112.762 3.87409 112.762 4.82193V24.6437C112.762 25.5314 112.86 26.1783 113.063 26.577C113.266 26.9757 113.665 27.254 114.267 27.397C114.869 27.5399 115.816 27.6151 117.103 27.6151C117.163 27.6151 117.186 27.7054 117.186 27.8709C117.186 28.0439 117.155 28.1266 117.103 28.1266C116.155 28.1266 115.41 28.1116 114.869 28.0815L111.559 28.0439L108.422 28.0815C107.85 28.1116 107.06 28.1266 106.06 28.1266C106 28.1266 105.97 28.0439 105.97 27.8709C105.97 27.6979 106 27.6151 106.06 27.6151C107.346 27.6151 108.294 27.5474 108.896 27.397C109.498 27.254 109.904 26.9757 110.122 26.562C110.34 26.1482 110.445 25.5088 110.445 24.6437V4.72413C110.445 3.7763 110.333 3.12184 110.099 2.76828C109.866 2.4072 109.46 2.18905 108.873 2.09878C108.286 2.01603 107.218 1.9709 105.669 1.9709C103.841 1.9709 102.524 2.39968 101.689 3.26477Z" fill="#161616"/>
<path d="M30.2931 0.616852H15.5941C15.7371 0.850049 15.8349 1.09829 15.895 1.36158C15.9778 1.39167 16.0756 1.42176 16.1433 1.45937C16.542 1.67753 16.7451 2.11383 16.7451 2.76829C16.7451 3.14441 16.6999 3.58824 16.6172 4.10729L16.3238 5.78481L16.3765 6.37157V6.44679C16.3765 6.8831 16.2411 7.27427 16.0079 7.59774L14.7667 14.6012C15.3233 15.1428 15.8424 15.7296 16.2862 16.4216C16.3464 16.5119 16.384 16.6097 16.4367 16.7L16.9331 13.9091H23.1242C24.072 13.9091 24.7415 14.0671 25.1477 14.383C25.5464 14.699 25.7495 15.2256 25.7495 15.9703C25.7495 16.1734 25.6893 16.6473 25.5765 17.392C25.5464 17.5049 25.6216 17.5726 25.7947 17.5876C25.9677 17.6027 26.0655 17.55 26.0956 17.4372L26.4416 15.203L26.6974 13.5255L26.9531 12.021C27.0359 11.6749 27.1562 11.0731 27.2992 10.2156C27.3292 10.1554 27.3067 10.1103 27.2315 10.0651C27.1562 10.02 27.096 9.99742 27.0359 9.99742C26.8629 9.99742 26.7801 10.0426 26.7801 10.1253C26.6071 11.2462 26.2761 12.021 25.7947 12.4498C25.3057 12.8785 24.5158 13.0967 23.4326 13.0967H17.0686L18.6558 4.15243C18.7987 3.29486 18.9868 2.66297 19.2125 2.26428C19.4381 1.86559 19.7767 1.58725 20.2205 1.44433C20.6643 1.3014 21.3564 1.22617 22.3042 1.22617H26.562C27.4496 1.22617 28.1417 1.54212 28.6231 2.17401C29.1121 2.8059 29.3528 3.66347 29.3528 4.75423C29.3528 5.2131 29.3077 5.70207 29.2249 6.22112C29.1948 6.30387 29.2701 6.36405 29.4431 6.39414C29.6161 6.42423 29.7139 6.37909 29.744 6.26625C29.8267 5.83747 29.9019 5.38612 29.9621 4.9122C30.0148 4.43828 30.09 3.98693 30.1803 3.55815L30.5714 1.02307C30.6091 0.744734 30.5188 0.616852 30.2931 0.616852Z" fill="#161616"/>
<path d="M14.2852 27.4948H26.6748C26.8779 27.4948 27.0208 27.4496 27.1261 27.3443C27.2314 27.239 27.3067 27.081 27.3669 26.8478C27.7355 24.6663 28.1718 22.8082 28.6607 21.2586C28.6908 21.1683 28.6231 21.1157 28.4651 21.0856C28.3072 21.0555 28.2169 21.0856 28.1868 21.1683C27.6978 22.8007 27.0283 24.1397 26.1633 25.1703C25.3057 26.2009 24.403 26.7199 23.4552 26.7199H17.8208C16.73 26.7199 15.9928 26.6146 15.6092 26.3965C15.5716 26.3739 15.5565 26.3213 15.5189 26.2987C15.1578 26.7425 14.7366 27.1337 14.2852 27.4948Z" fill="#161616"/>
<path d="M13.7737 0.872602C13.7737 1.04562 13.8188 1.12837 13.9016 1.12837C14.8043 1.12837 15.4588 1.21111 15.8951 1.35404C15.8349 1.09075 15.7371 0.842512 15.5942 0.609314H13.9016C13.8188 0.616836 13.7737 0.707107 13.7737 0.872602Z" fill="#161616"/>
<path d="M16.369 6.44677V6.37155L16.3163 5.78479L15.9929 7.60524C16.2261 7.27425 16.369 6.87555 16.369 6.44677Z" fill="#161616"/>
<path d="M176.102 27.5173C176.124 27.6903 176.079 27.7731 175.959 27.7731C175.53 27.7731 174.883 27.743 174.011 27.6903C173.025 27.6301 172.25 27.6 171.679 27.6C171.137 27.6 170.407 27.6301 169.497 27.6903C168.647 27.7505 168.015 27.7731 167.616 27.7731C167.534 27.7731 167.481 27.6903 167.458 27.5173C167.436 27.3443 167.466 27.2615 167.556 27.2615C168.7 27.2615 169.467 27.1261 169.851 26.8478C170.234 26.577 170.377 26.0655 170.287 25.3132C170.264 25.1101 170.189 24.7264 170.061 24.1472L167.082 13.1267H160.463L156.686 22.0259C155.949 23.726 155.626 24.9822 155.723 25.7871C155.791 26.3664 156.062 26.75 156.536 26.9531C157.002 27.1562 157.679 27.254 158.574 27.254C158.687 27.254 158.747 27.3368 158.755 27.5098C158.762 27.6828 158.71 27.7655 158.589 27.7655C158.274 27.7655 157.657 27.7354 156.731 27.6828C155.693 27.6226 154.888 27.5925 154.317 27.5925C153.715 27.5925 153.015 27.6226 152.218 27.6828C151.421 27.743 150.811 27.7655 150.382 27.7655C150.27 27.7655 150.202 27.6828 150.179 27.5098C150.157 27.3368 150.202 27.254 150.322 27.254C152.21 27.254 153.858 25.6968 155.257 22.5901L164.931 0.338484C164.976 0.255737 165.074 0.210602 165.217 0.210602C165.473 0.210602 165.638 0.285827 165.713 0.428754L172.175 24.1472C172.393 25.0123 172.626 25.6517 172.86 26.073C173.1 26.4942 173.439 26.7951 173.898 26.9832C174.357 27.1713 175.019 27.2615 175.906 27.2615C176.012 27.2615 176.079 27.3443 176.102 27.5173ZM166.849 12.3068L164.502 3.62582L160.786 12.3068H166.849Z" fill="#161616"/>
<path d="M93.7755 27.4948H99.2218C99.4249 27.4948 99.5754 27.4496 99.6732 27.3443C99.771 27.239 99.8537 27.081 99.9064 26.8478C100.283 24.6663 100.711 22.8082 101.2 21.2586C101.23 21.1683 101.163 21.1157 101.005 21.0856C100.847 21.0555 100.756 21.0856 100.726 21.1683C100.237 22.8007 99.5679 24.1397 98.7028 25.1703C97.8452 26.2009 96.9425 26.7199 95.9947 26.7199H93.8733C93.8733 26.7576 93.8733 26.8102 93.8733 26.8478C93.8733 27.0886 93.8207 27.2917 93.7755 27.4948Z" fill="#161616"/>
<path d="M163.035 0.549133L161.23 0.594268C160.485 0.654448 159.808 0.677016 159.206 0.677016C158.462 0.677016 157.596 0.646926 156.626 0.594268L154.911 0.549133C154.821 0.549133 154.783 0.631881 154.783 0.812421C154.783 0.985439 154.828 1.06819 154.911 1.06819C156.115 1.06819 156.98 1.18102 157.514 1.41422C158.048 1.6399 158.311 2.01602 158.311 2.52755C158.311 2.87359 158.213 3.28733 158.01 3.77629L149.713 24.3804L146.576 17.4597C146.305 18.5505 145.914 19.5961 145.41 20.6041L148.509 27.397C148.592 27.5098 148.75 27.57 148.983 27.57C149.269 27.57 149.427 27.5098 149.457 27.397L158.92 4.0471C159.409 2.89615 159.974 2.11381 160.621 1.70008C161.267 1.28634 162.072 1.07571 163.05 1.07571C163.133 1.07571 163.178 0.992961 163.178 0.819944C163.163 0.639403 163.126 0.549133 163.035 0.549133Z" fill="#161616"/>
<path d="M143.552 7.08617C142.446 4.99491 140.866 3.30987 138.798 2.03105C136.737 0.752221 134.337 0.120331 131.614 0.120331C129.455 0.120331 127.341 0.564159 125.265 1.39163C125.25 1.55713 125.242 1.72262 125.227 1.90316C126.559 1.3465 128.086 1.06064 129.808 1.06064C132.328 1.06064 134.548 1.6474 136.451 2.82091C138.361 3.99442 139.836 5.63433 140.881 7.74815C141.927 9.85445 142.454 12.2541 142.454 14.9547C142.454 17.5048 141.98 19.7014 141.032 21.5369C140.084 23.3724 138.798 24.7641 137.158 25.7119C135.525 26.6597 133.69 27.1336 131.651 27.1336C129.244 27.1336 127.093 26.4867 125.197 25.2004C123.301 23.9065 121.835 22.1537 120.789 19.9346C119.743 17.7155 119.217 15.2707 119.217 12.6002C119.217 10.0275 119.713 7.85347 120.684 6.06311C120.616 5.5591 120.526 5.21307 120.435 4.98739C120.383 4.85199 120.315 4.75419 120.247 4.64888C119.698 5.20554 119.172 5.79982 118.698 6.4618C117.208 8.5681 116.463 11.1032 116.463 14.052C116.463 16.5721 117.028 18.904 118.164 21.0404C119.292 23.1768 120.902 24.8694 122.978 26.1181C125.054 27.3668 127.431 27.9912 130.094 27.9912C132.787 27.9912 135.292 27.3593 137.594 26.0955C139.904 24.8318 141.747 23.1166 143.123 20.9351C144.5 18.7611 145.184 16.3614 145.184 13.7511C145.207 11.4041 144.658 9.18495 143.552 7.08617Z" fill="#161616"/>
<path d="M86.4411 0.616852C86.3584 0.616852 86.3132 0.707122 86.3132 0.880139C86.3132 1.05316 86.3584 1.1359 86.4411 1.1359C87.5319 1.1359 88.2766 1.24122 88.6753 1.45937C89.074 1.67753 89.2771 2.11383 89.2771 2.76829C89.2771 3.14441 89.232 3.58824 89.1492 4.10729L85.6212 24.0194C85.561 24.3353 85.4933 24.6061 85.4256 24.8544H86.915C87.0956 24.8544 87.3212 24.8544 87.5695 24.8167C87.5845 24.5309 87.6146 24.2225 87.6823 23.8463L89.4426 13.9091H95.6336C96.5814 13.9091 97.251 14.0671 97.6572 14.383C98.0559 14.699 98.259 15.2256 98.259 15.9703C98.259 16.1734 98.1988 16.6473 98.0859 17.392C98.0559 17.5049 98.1311 17.5726 98.3041 17.5876C98.4771 17.6027 98.5749 17.55 98.605 17.4372L98.951 15.203L99.2068 13.5255L99.4626 12.021C99.5453 11.6749 99.6657 11.0731 99.8086 10.2156C99.8387 10.1554 99.8161 10.1103 99.7409 10.0651C99.6732 10.02 99.6055 9.99742 99.5453 9.99742C99.3723 9.99742 99.2895 10.0426 99.2895 10.1253C99.1165 11.2462 98.7855 12.021 98.3041 12.4498C97.8151 12.8785 97.0253 13.0967 95.9345 13.0967H89.5705L91.1577 4.15243C91.3006 3.29486 91.4887 2.66297 91.7144 2.26428C91.9401 1.86559 92.2786 1.58725 92.7224 1.44433C93.1662 1.3014 93.8658 1.22617 94.8061 1.22617H98.2214C98.2289 1.00802 98.2364 0.804914 98.2364 0.624374H86.4411V0.616852Z" fill="#161616"/>
<path d="M69.7035 0.872617C69.7035 0.827482 69.711 0.782347 69.7186 0.737212C69.6358 0.744734 69.5456 0.744734 69.4703 0.744734C68.8685 0.744734 68.0486 0.714644 67.018 0.661987L65.2502 0.616852C65.2201 0.616852 65.1975 0.639419 65.175 0.661987C65.1825 0.729689 65.1975 0.797392 65.1975 0.872617C65.1975 0.947842 65.1825 1.01554 65.175 1.08325C65.1975 1.10581 65.2126 1.12838 65.2502 1.12838C66.3711 1.12838 67.1384 1.2337 67.5521 1.45185C67.9658 1.67 68.1765 2.10631 68.1765 2.76077C68.1765 2.96387 68.1163 3.4077 68.0034 4.09225L64.4754 24.0043C64.4002 24.4557 64.3099 24.8393 64.2121 25.1703C65.0697 25.2982 65.8896 26.0053 65.8896 27.2315C65.8896 27.2992 65.8746 27.3594 65.867 27.4195L67.6123 27.4496C68.041 27.4797 68.6128 27.4948 69.3349 27.4948C69.3951 27.4948 69.4177 27.412 69.4177 27.239C69.4177 27.066 69.3876 26.9832 69.3349 26.9832C68.1915 26.9832 67.4167 26.8779 67.0105 26.6598C66.6043 26.4416 66.4087 26.0053 66.4087 25.3508C66.4087 25.0048 66.4538 24.561 66.5365 24.0194L70.0646 4.19004C70.2 3.52806 70.3429 3.00901 70.5084 2.61032C70.042 2.26428 69.7035 1.68505 69.7035 0.872617Z" fill="#161616"/>
</svg>
